<svg width="25" height="24" viewBox="0 0 25 24" fill="none" xmlns="http://www.w3.org/2000/svg">
<path fill-rule="evenodd" clip-rule="evenodd" d="M17.2008 4.57731C16.6258 5.72727 16.2413 7.38591 16.2413 9.27259C16.2413 11.1593 16.6258 12.8179 17.2008 13.9679C17.8057 15.1777 18.4563 15.5452 18.8776 15.5452C19.2989 15.5452 19.9496 15.1777 20.5545 13.9679C21.1294 12.8179 21.5139 11.1593 21.5139 9.27259C21.5139 7.38591 21.1294 5.72727 20.5545 4.57731C19.9496 3.36753 19.2989 3 18.8776 3C18.4563 3 17.8057 3.36753 17.2008 4.57731ZM4.63619 7.49812L15.2049 4.12846C14.5915 5.55067 14.2413 7.3496 14.2413 9.27259C14.2413 11.1956 14.5915 12.9945 15.2049 14.4167L4.63619 11.0471L4.61764 11.0414C4.26766 10.9372 3.96516 10.7139 3.76261 10.41C3.56006 10.1062 3.47024 9.74108 3.50871 9.37796C3.51613 9.30791 3.51613 9.23728 3.50871 9.16723C3.47024 8.80411 3.56006 8.43898 3.76261 8.13516C3.96516 7.83133 4.26766 7.60798 4.61764 7.50384L4.63619 7.49812ZM4.03715 5.58992L17.8612 1.18235C18.1781 1.06508 18.517 1 18.8776 1C20.4646 1 21.6321 2.26049 22.3433 3.68288C23.0844 5.16508 23.5139 7.14274 23.5139 9.27259C23.5139 11.4024 23.0844 13.3801 22.3433 14.8623C21.6321 16.2847 20.4646 17.5452 18.8776 17.5452C18.517 17.5452 18.1781 17.4801 17.8612 17.3628L12.4439 15.6356L13.3266 18.3031C13.5919 18.9878 13.5795 19.7496 13.2913 20.4259C12.9985 21.1128 12.4452 21.6555 11.7526 21.9348L11.7512 21.9354C11.0583 22.2136 10.2832 22.2054 9.59629 21.9127C8.90936 21.6199 8.36667 21.0666 8.0874 20.374C8.08238 20.3616 8.07761 20.349 8.07309 20.3364L5.61686 13.4589L4.03715 12.9553C3.24376 12.7166 2.5582 12.209 2.09851 11.5194C1.65647 10.8564 1.44999 10.0652 1.51026 9.27259C1.44999 8.48 1.65647 7.68882 2.09851 7.02576C2.5582 6.33622 3.24376 5.82856 4.03715 5.58992ZM10.0888 14.8847L8.01349 14.2231L9.94846 19.641C10.0312 19.8351 10.1859 19.9899 10.3804 20.0728C10.5796 20.1577 10.8044 20.1601 11.0055 20.0796C11.2061 19.9984 11.3665 19.841 11.4514 19.6418C11.5364 19.4424 11.5388 19.2173 11.458 19.0161C11.4503 18.9969 11.4431 18.9774 11.4366 18.9577L10.0888 14.8847ZM19.4336 7.46342C19.8793 7.96077 20.1263 8.60478 20.1275 9.27261C20.1263 9.94044 19.8793 10.5845 19.4336 11.0818C18.9879 11.5791 18.3747 11.895 17.711 11.9692C17.5005 11.0859 17.3961 10.1806 17.4001 9.27261C17.3961 8.36459 17.5005 7.45933 17.711 6.57605C18.3747 6.6502 18.9879 6.96608 19.4336 7.46342Z" fill="#010101"/>
</svg>
