<svg width="25" height="24" viewBox="0 0 25 24" fill="none" xmlns="http://www.w3.org/2000/svg">
<path fill-rule="evenodd" clip-rule="evenodd" d="M12.5 9C13.0523 9 13.5 9.44772 13.5 10V20C13.5 20.5523 13.0523 21 12.5 21C11.9477 21 11.5 20.5523 11.5 20V10C11.5 9.44772 11.9477 9 12.5 9Z" fill="#010101"/>
<path fill-rule="evenodd" clip-rule="evenodd" d="M18.5 3C19.0523 3 19.5 3.44772 19.5 4V20C19.5 20.5523 19.0523 21 18.5 21C17.9477 21 17.5 20.5523 17.5 20V4C17.5 3.44772 17.9477 3 18.5 3Z" fill="#010101"/>
<path fill-rule="evenodd" clip-rule="evenodd" d="M6.5 15C7.05228 15 7.5 15.4477 7.5 16V20C7.5 20.5523 7.05228 21 6.5 21C5.94772 21 5.5 20.5523 5.5 20V16C5.5 15.4477 5.94772 15 6.5 15Z" fill="#010101"/>
</svg>
