<svg width="25" height="24" viewBox="0 0 25 24" fill="none" xmlns="http://www.w3.org/2000/svg">
<g clip-path="url(#clip0)">
<path fill-rule="evenodd" clip-rule="evenodd" d="M3.5 5C2.94772 5 2.5 5.44772 2.5 6V18C2.5 18.5523 2.94772 19 3.5 19H21.5C22.0523 19 22.5 18.5523 22.5 18V6C22.5 5.44772 22.0523 5 21.5 5H3.5ZM0.5 6C0.5 4.34315 1.84315 3 3.5 3H21.5C23.1569 3 24.5 4.34315 24.5 6V18C24.5 19.6569 23.1569 21 21.5 21H3.5C1.84315 21 0.5 19.6569 0.5 18V6Z" fill="#010101"/>
<path fill-rule="evenodd" clip-rule="evenodd" d="M0.5 10C0.5 9.44772 0.947715 9 1.5 9H23.5C24.0523 9 24.5 9.44772 24.5 10C24.5 10.5523 24.0523 11 23.5 11H1.5C0.947715 11 0.5 10.5523 0.5 10Z" fill="#010101"/>
</g>
<defs>
<clipPath id="clip0">
<rect width="24" height="24" fill="white" transform="translate(0.5)"/>
</clipPath>
</defs>
</svg>
