<svg width="25" height="24" viewBox="0 0 25 24" fill="none" xmlns="http://www.w3.org/2000/svg">
<path fill-rule="evenodd" clip-rule="evenodd" d="M12.5 0C13.0523 0 13.5 0.447715 13.5 1V23C13.5 23.5523 13.0523 24 12.5 24C11.9477 24 11.5 23.5523 11.5 23V1C11.5 0.447715 11.9477 0 12.5 0Z" fill="#010101"/>
<path fill-rule="evenodd" clip-rule="evenodd" d="M6.81802 5.31802C7.66193 4.47411 8.80653 4 10 4H17.5C18.0523 4 18.5 4.44772 18.5 5C18.5 5.55228 18.0523 6 17.5 6H10C9.33696 6 8.70107 6.26339 8.23223 6.73223C7.76339 7.20107 7.5 7.83696 7.5 8.5C7.5 9.16304 7.76339 9.79893 8.23223 10.2678C8.70107 10.7366 9.33696 11 10 11H15C16.1935 11 17.3381 11.4741 18.182 12.318C19.0259 13.1619 19.5 14.3065 19.5 15.5C19.5 16.6935 19.0259 17.8381 18.182 18.682C17.3381 19.5259 16.1935 20 15 20H6.5C5.94772 20 5.5 19.5523 5.5 19C5.5 18.4477 5.94772 18 6.5 18H15C15.663 18 16.2989 17.7366 16.7678 17.2678C17.2366 16.7989 17.5 16.163 17.5 15.5C17.5 14.837 17.2366 14.2011 16.7678 13.7322C16.2989 13.2634 15.663 13 15 13H10C8.80653 13 7.66193 12.5259 6.81802 11.682C5.97411 10.8381 5.5 9.69347 5.5 8.5C5.5 7.30653 5.97411 6.16193 6.81802 5.31802Z" fill="#010101"/>
</svg>
