<svg width="25" height="24" viewBox="0 0 25 24" fill="none" xmlns="http://www.w3.org/2000/svg">
<path fill-rule="evenodd" clip-rule="evenodd" d="M6.5 2C7.05228 2 7.5 2.44772 7.5 3V15C7.5 15.5523 7.05228 16 6.5 16C5.94772 16 5.5 15.5523 5.5 15V3C5.5 2.44772 5.94772 2 6.5 2Z" fill="#010101"/>
<path fill-rule="evenodd" clip-rule="evenodd" d="M18.5 4C17.3954 4 16.5 4.89543 16.5 6C16.5 7.10457 17.3954 8 18.5 8C19.6046 8 20.5 7.10457 20.5 6C20.5 4.89543 19.6046 4 18.5 4ZM14.5 6C14.5 3.79086 16.2909 2 18.5 2C20.7091 2 22.5 3.79086 22.5 6C22.5 8.20914 20.7091 10 18.5 10C16.2909 10 14.5 8.20914 14.5 6Z" fill="#010101"/>
<path fill-rule="evenodd" clip-rule="evenodd" d="M6.5 16C5.39543 16 4.5 16.8954 4.5 18C4.5 19.1046 5.39543 20 6.5 20C7.60457 20 8.5 19.1046 8.5 18C8.5 16.8954 7.60457 16 6.5 16ZM2.5 18C2.5 15.7909 4.29086 14 6.5 14C8.70914 14 10.5 15.7909 10.5 18C10.5 20.2091 8.70914 22 6.5 22C4.29086 22 2.5 20.2091 2.5 18Z" fill="#010101"/>
<path fill-rule="evenodd" clip-rule="evenodd" d="M18.5 8C19.0523 8 19.5 8.44772 19.5 9C19.5 11.6522 18.4464 14.1957 16.5711 16.0711C14.6957 17.9464 12.1522 19 9.5 19C8.94772 19 8.5 18.5523 8.5 18C8.5 17.4477 8.94772 17 9.5 17C11.6217 17 13.6566 16.1571 15.1569 14.6569C16.6571 13.1566 17.5 11.1217 17.5 9C17.5 8.44772 17.9477 8 18.5 8Z" fill="#010101"/>
</svg>
