<svg width="25" height="24" viewBox="0 0 25 24" fill="none" xmlns="http://www.w3.org/2000/svg">
<g clip-path="url(#clip0)">
<path d="M21.0104 24H20.9732C20.5746 23.9973 20.1807 23.914 19.8153 23.755C19.4498 23.5961 19.1202 23.3648 18.8466 23.075L8.64284 12.3386C7.48413 12.7773 6.22277 12.8691 5.01276 12.6028C3.80275 12.3365 2.69646 11.7236 1.82896 10.8391C0.961467 9.95448 0.370301 8.83645 0.127648 7.62148C-0.115005 6.40652 0.00135509 5.14718 0.46252 3.99725C0.527159 3.83957 0.629679 3.70026 0.761001 3.59166C0.892324 3.48306 1.0484 3.40851 1.21541 3.37462C1.38241 3.34073 1.5552 3.34854 1.71847 3.39736C1.88174 3.44618 2.03045 3.5345 2.15144 3.65451L4.36066 5.86373C4.56265 6.05634 4.83104 6.1638 5.11015 6.1638C5.38925 6.1638 5.65764 6.05634 5.85963 5.86373C6.05813 5.66399 6.16948 5.39378 6.16933 5.11218C6.16946 4.97297 6.14176 4.83514 6.08786 4.70679C6.03397 4.57844 5.95497 4.46215 5.8555 4.36476L3.63802 2.15967C3.51801 2.03868 3.42969 1.88997 3.38087 1.7267C3.33205 1.56343 3.32424 1.39064 3.35813 1.22363C3.39203 1.05663 3.46657 0.900553 3.57517 0.76923C3.68378 0.637908 3.82308 0.535388 3.98076 0.470749C5.14967 -0.00631459 6.43418 -0.124408 7.67048 0.13153C8.90678 0.387468 10.0388 1.00584 10.9223 1.90778C11.7678 2.78274 12.349 3.87877 12.5988 5.06961C12.8487 6.26045 12.7571 7.49764 12.3345 8.63868L23.0709 18.8465C23.5034 19.2588 23.8024 19.7913 23.9293 20.3752C24.0562 20.959 24.0053 21.5675 23.7831 22.1222C23.5609 22.6768 23.1776 23.1522 22.6826 23.4869C22.1876 23.8216 21.6037 24.0003 21.0062 24H21.0104ZM8.88647 10.0674C9.02645 10.0672 9.165 10.0957 9.29355 10.1511C9.4221 10.2065 9.53794 10.2876 9.63389 10.3895L20.3414 21.6462C20.4259 21.7359 20.5276 21.8077 20.6404 21.8573C20.7532 21.907 20.8748 21.9335 20.998 21.9353C21.1216 21.9382 21.2445 21.9155 21.3589 21.8686C21.4733 21.8217 21.5768 21.7516 21.6628 21.6628C21.7503 21.576 21.8192 21.4722 21.8654 21.358C21.9115 21.2437 21.9339 21.1212 21.9312 20.9979C21.9297 20.8751 21.9037 20.7537 21.8548 20.641C21.8059 20.5282 21.735 20.4264 21.6463 20.3414L10.3854 9.63386C10.2197 9.47869 10.1099 9.27301 10.0733 9.04891C10.0367 8.82481 10.0753 8.5949 10.1831 8.39504C10.6018 7.58394 10.7564 6.66226 10.6253 5.75894C10.4943 4.85562 10.0841 4.01588 9.4522 3.35719C8.66756 2.55274 7.5984 2.08859 6.47491 2.06469L7.30079 2.89057C7.59664 3.17904 7.83236 3.52331 7.99433 3.90346C8.15629 4.28361 8.24127 4.6921 8.24436 5.1053C8.24746 5.5185 8.16859 5.92822 8.01234 6.31075C7.85609 6.69328 7.62554 7.04103 7.33404 7.3339C7.04254 7.62677 6.69586 7.85894 6.31406 8.01698C5.93227 8.17501 5.52292 8.25579 5.10971 8.25463C4.6965 8.25346 4.28762 8.17039 3.90672 8.0102C3.52581 7.85002 3.18045 7.61591 2.8906 7.3214L2.06472 6.49553C2.08197 7.23147 2.28702 7.95079 2.66042 8.58521C3.03381 9.21963 3.56315 9.74809 4.19819 10.1204C4.83323 10.4928 5.55289 10.6966 6.28887 10.7126C7.02484 10.7287 7.75269 10.5563 8.40333 10.212C8.5496 10.1238 8.71581 10.0741 8.88647 10.0674Z" fill="#010101"/>
<path d="M13.817 12.5038C13.6117 12.505 13.4107 12.4449 13.2397 12.3313C13.0687 12.2177 12.9354 12.0557 12.857 11.866C12.7785 11.6763 12.7584 11.4675 12.7992 11.2662C12.84 11.065 12.9399 10.8806 13.0861 10.7364L18.0042 5.82657C18.1992 5.63878 18.4601 5.53508 18.7308 5.5378C19.0015 5.54053 19.2602 5.64947 19.4514 5.84115C19.6425 6.03283 19.7507 6.29193 19.7527 6.56262C19.7547 6.83331 19.6502 7.09394 19.4619 7.28837L14.5479 12.2023C14.452 12.2983 14.338 12.3744 14.2126 12.4261C14.0871 12.4779 13.9527 12.5043 13.817 12.5038Z" fill="#010101"/>
<path d="M20.6137 9.47283C20.4786 9.47298 20.3449 9.44642 20.2202 9.39468C20.0954 9.34295 19.9822 9.26706 19.8869 9.17138L16.1044 5.40538C15.9921 5.29459 15.9069 5.15947 15.8553 5.01048C15.8036 4.86149 15.7869 4.70261 15.8065 4.54614C15.826 4.38966 15.8813 4.23978 15.9681 4.10809C16.0548 3.97639 16.1707 3.86642 16.3067 3.78666L20.9234 1.06952C21.1184 0.956111 21.3454 0.910031 21.5693 0.938389C21.7932 0.966746 22.0015 1.06797 22.1622 1.22644L24.0452 3.10944C24.2037 3.26997 24.3053 3.478 24.3343 3.70172C24.3634 3.92544 24.3184 4.15253 24.2062 4.34826L21.5056 8.96491C21.425 9.10027 21.3148 9.21558 21.1832 9.30213C21.0515 9.38868 20.902 9.44422 20.7458 9.46457L20.6137 9.47283ZM18.5201 4.88508L20.4031 6.76808L22.0548 4.00552L21.2867 3.25397L18.5201 4.88508Z" fill="#010101"/>
<path d="M4.2785 24C3.68099 24.0003 3.09708 23.8216 2.60212 23.4869C2.10715 23.1522 1.72383 22.6769 1.50162 22.1222C1.2794 21.5675 1.22848 20.959 1.35542 20.3752C1.48237 19.7913 1.78135 19.2588 2.21381 18.8465L9.58064 11.8266C9.77886 11.6377 10.044 11.5352 10.3178 11.5418C10.5915 11.5484 10.8515 11.6634 11.0404 11.8617C11.2293 12.0599 11.3317 12.3251 11.3251 12.5988C11.3186 12.8726 11.2035 13.1325 11.0053 13.3214L3.63432 20.3414C3.54559 20.4264 3.4747 20.5283 3.42577 20.641C3.37685 20.7537 3.35089 20.8751 3.34939 20.9979C3.34669 21.1212 3.36909 21.2437 3.41523 21.358C3.46138 21.4723 3.5303 21.576 3.6178 21.6628C3.79774 21.8332 4.03481 21.9304 4.28263 21.9353C4.40584 21.9335 4.52744 21.907 4.64022 21.8574C4.753 21.8077 4.85467 21.7359 4.9392 21.6463L11.8972 14.3414C12.089 14.1587 12.3437 14.0567 12.6086 14.0565C12.8735 14.0564 13.1283 14.1581 13.3204 14.3405C13.5124 14.523 13.6269 14.7723 13.6403 15.0369C13.6536 15.3014 13.5647 15.561 13.3921 15.7619L6.4423 23.0709C6.16861 23.3606 5.83909 23.592 5.4736 23.7509C5.10811 23.9099 4.71422 23.9932 4.31567 23.9959L4.2785 24Z" fill="#010101"/>
</g>
<defs>
<clipPath id="clip0">
<rect width="24.3675" height="24" fill="white"/>
</clipPath>
</defs>
</svg>
