<svg width="25" height="24" viewBox="0 0 25 24" fill="none" xmlns="http://www.w3.org/2000/svg">
<path fill-rule="evenodd" clip-rule="evenodd" d="M4.5 4C3.94772 4 3.5 4.44772 3.5 5V15C3.5 15.5523 3.94772 16 4.5 16H20.5C21.0523 16 21.5 15.5523 21.5 15V5C21.5 4.44772 21.0523 4 20.5 4H4.5ZM1.5 5C1.5 3.34315 2.84315 2 4.5 2H20.5C22.1569 2 23.5 3.34315 23.5 5V15C23.5 16.6569 22.1569 18 20.5 18H4.5C2.84315 18 1.5 16.6569 1.5 15V5Z" fill="black"/>
<path fill-rule="evenodd" clip-rule="evenodd" d="M7.5 21C7.5 20.4477 7.94772 20 8.5 20H16.5C17.0523 20 17.5 20.4477 17.5 21C17.5 21.5523 17.0523 22 16.5 22H8.5C7.94772 22 7.5 21.5523 7.5 21Z" fill="black"/>
<path fill-rule="evenodd" clip-rule="evenodd" d="M12.5 16C13.0523 16 13.5 16.4477 13.5 17V21C13.5 21.5523 13.0523 22 12.5 22C11.9477 22 11.5 21.5523 11.5 21V17C11.5 16.4477 11.9477 16 12.5 16Z" fill="black"/>
<path d="M8.38789 11.7166H6.22384L5.81242 12.9198H4.5L6.72988 7.08021H7.87362L10.1158 12.9198H8.80342L8.38789 11.7166ZM6.55708 10.742H8.05464L7.30175 8.55615L6.55708 10.742Z" fill="black"/>
<path d="M10.6754 12.9198V7.08021H12.5185C13.0451 7.08021 13.5155 7.19652 13.9297 7.42914C14.3466 7.65909 14.6716 7.98797 14.9047 8.41578C15.1379 8.84091 15.2544 9.32487 15.2544 9.86765V10.1364C15.2544 10.6791 15.1392 11.1618 14.9088 11.5842C14.6812 12.0067 14.3589 12.3342 13.942 12.5668C13.5251 12.7995 13.0547 12.9171 12.5309 12.9198H10.6754ZM11.9096 8.05481V11.9532H12.5062C12.9889 11.9532 13.3578 11.7995 13.6129 11.492C13.868 11.1845 13.9982 10.7447 14.0037 10.1725V9.86364C14.0037 9.27005 13.8776 8.82086 13.6252 8.51604C13.3729 8.20856 13.004 8.05481 12.5185 8.05481H11.9096Z" fill="black"/>
<path d="M19.2616 11.3877C19.2616 11.1604 19.1794 10.9866 19.0148 10.8663C18.8502 10.7433 18.554 10.615 18.1261 10.4813C17.6983 10.3449 17.3595 10.2112 17.1099 10.0802C16.4297 9.72193 16.0896 9.2393 16.0896 8.63235C16.0896 8.31684 16.1801 8.0361 16.3611 7.79011C16.5449 7.54144 16.8068 7.34759 17.147 7.20856C17.4898 7.06952 17.8738 7 18.2989 7C18.7268 7 19.108 7.0762 19.4427 7.22861C19.7773 7.37834 20.0365 7.59091 20.2202 7.86631C20.4067 8.14171 20.5 8.45455 20.5 8.80481H19.2657C19.2657 8.53743 19.1794 8.33021 19.0066 8.18316C18.8338 8.03342 18.591 7.95856 18.2783 7.95856C17.9766 7.95856 17.7421 8.02139 17.5748 8.14706C17.4075 8.27005 17.3239 8.43316 17.3239 8.63636C17.3239 8.8262 17.4212 8.98529 17.616 9.11364C17.8134 9.24198 18.1028 9.3623 18.4841 9.4746C19.1862 9.68048 19.6977 9.93583 20.0186 10.2406C20.3395 10.5455 20.5 10.9251 20.5 11.3797C20.5 11.885 20.3039 12.2821 19.9117 12.5709C19.5195 12.857 18.9915 13 18.3277 13C17.8669 13 17.4473 12.9184 17.0688 12.7553C16.6903 12.5896 16.4009 12.3636 16.2007 12.0775C16.0032 11.7914 15.9045 11.4599 15.9045 11.0829H17.1428C17.1428 11.7273 17.5378 12.0495 18.3277 12.0495C18.6212 12.0495 18.8502 11.992 19.0148 11.877C19.1794 11.7594 19.2616 11.5963 19.2616 11.3877Z" fill="black"/>
</svg>
