<svg width="26" height="24" viewBox="0 0 26 24" fill="none" xmlns="http://www.w3.org/2000/svg">
<g clip-path="url(#clip0)">
<path fill-rule="evenodd" clip-rule="evenodd" d="M11.958 2C11.6817 2 11.4168 2.10536 11.2214 2.29289C11.0261 2.48043 10.9163 2.73478 10.9163 3V11.382L13.5755 10.1056C13.7201 10.0361 13.8796 10 14.0413 10H22.3747C22.6509 10 22.9159 9.89464 23.1112 9.70711C23.3066 9.51957 23.4163 9.26522 23.4163 9V3C23.4163 2.73478 23.3066 2.48043 23.1112 2.29289C22.9159 2.10536 22.6509 2 22.3747 2H11.958ZM9.7483 0.87868C10.3344 0.316071 11.1292 0 11.958 0H22.3747C23.2035 0 23.9983 0.316071 24.5844 0.87868C25.1704 1.44129 25.4997 2.20435 25.4997 3V9C25.4997 9.79565 25.1704 10.5587 24.5844 11.1213C23.9983 11.6839 23.2035 12 22.3747 12H14.2872L10.3405 13.8944C10.0176 14.0494 9.63414 14.0329 9.32704 13.8507C9.01994 13.6684 8.83301 13.3466 8.83301 13V3C8.83301 2.20435 9.16225 1.44129 9.7483 0.87868Z" fill="#010101"/>
<path fill-rule="evenodd" clip-rule="evenodd" d="M2.4568 2.87868C3.04285 2.31607 3.8377 2 4.6665 2H6.229C6.8043 2 7.27067 2.44772 7.27067 3C7.27067 3.55228 6.8043 4 6.229 4H4.6665C4.39024 4 4.12528 4.10536 3.92993 4.29289C3.73458 4.48043 3.62484 4.73478 3.62484 5V21C3.62484 21.2652 3.73458 21.5196 3.92993 21.7071C4.12529 21.8946 4.39024 22 4.6665 22H16.1248C16.4011 22 16.6661 21.8946 16.8614 21.7071C17.0568 21.5196 17.1665 21.2652 17.1665 21V15C17.1665 14.4477 17.6329 14 18.2082 14C18.7835 14 19.2498 14.4477 19.2498 15V21C19.2498 21.7957 18.9206 22.5587 18.3345 23.1213C17.7485 23.6839 16.9536 24 16.1248 24H4.6665C3.8377 24 3.04285 23.6839 2.4568 23.1213C1.87074 22.5587 1.5415 21.7957 1.5415 21V5C1.5415 4.20435 1.87074 3.44129 2.4568 2.87868Z" fill="#010101"/>
<ellipse cx="10.9167" cy="19" rx="1.04167" ry="1" fill="#010101"/>
</g>
<defs>
<clipPath id="clip0">
<rect width="25" height="24" fill="white" transform="translate(0.5)"/>
</clipPath>
</defs>
</svg>
