<svg width="25" height="24" viewBox="0 0 25 24" fill="none" xmlns="http://www.w3.org/2000/svg">
<path fill-rule="evenodd" clip-rule="evenodd" d="M4.5 3C3.94772 3 3.5 3.44772 3.5 4V8C3.5 8.55228 3.94772 9 4.5 9H20.5C21.0523 9 21.5 8.55228 21.5 8V4C21.5 3.44772 21.0523 3 20.5 3H4.5ZM1.5 4C1.5 2.34315 2.84315 1 4.5 1H20.5C22.1569 1 23.5 2.34315 23.5 4V8C23.5 9.65685 22.1569 11 20.5 11H4.5C2.84315 11 1.5 9.65685 1.5 8V4Z" fill="#010101"/>
<path fill-rule="evenodd" clip-rule="evenodd" d="M4.5 15C3.94772 15 3.5 15.4477 3.5 16V20C3.5 20.5523 3.94772 21 4.5 21H20.5C21.0523 21 21.5 20.5523 21.5 20V16C21.5 15.4477 21.0523 15 20.5 15H4.5ZM1.5 16C1.5 14.3431 2.84315 13 4.5 13H20.5C22.1569 13 23.5 14.3431 23.5 16V20C23.5 21.6569 22.1569 23 20.5 23H4.5C2.84315 23 1.5 21.6569 1.5 20V16Z" fill="#010101"/>
</svg>
